<svg width="40" height="40" viewBox="0 0 40 40" fill="none" xmlns="http://www.w3.org/2000/svg">
<path fill-rule="evenodd" clip-rule="evenodd" d="M20 0C31.0465 0 40 8.95349 40 20C40 31.0465 31.0465 40 20 40C8.95349 40 0 31.0465 0 20C0 8.95349 8.95349 0 20 0ZM20 2.55814C10.3488 2.55814 2.55814 10.3488 2.55814 20C2.55814 29.6512 10.3488 37.4419 20 37.4419C29.6512 37.4419 37.4419 29.6512 37.4419 20C37.4419 10.3488 29.6512 2.55814 20 2.55814ZM16.2848 12.0463L17.9278 13.6942C19.1013 14.8712 18.3972 15.6951 17.341 16.2836C16.6369 16.6367 16.2848 17.5783 16.6369 18.4022C17.8104 21.3448 19.4534 22.9926 22.3872 24.1696C23.2087 24.405 24.0302 24.1696 24.4996 23.3457C25.0864 22.4041 25.9079 21.6979 26.9641 22.7572L28.7244 24.5227C29.8914 25.6932 28.8018 26.7829 27.8599 27.7247C27.6653 27.9194 27.4769 28.1077 27.3161 28.2892C26.2599 29.2308 24.8517 29.4662 23.5608 28.9954C18.2798 26.759 13.9377 22.5218 11.8253 17.1075C11.2386 15.9305 11.5906 14.4004 12.5295 13.4588C12.641 13.3469 12.7592 13.2217 12.8832 13.0903C13.803 12.1161 15.0439 10.8018 16.2848 12.0463Z" fill="white"/>
</svg>
