<svg width="90" height="90" viewBox="0 0 90 90" fill="none" xmlns="http://www.w3.org/2000/svg">
<path d="M46.4403 12.926C63.6785 12.0064 80.9033 20.3537 87.3012 34.0402C92.9801 46.293 88.6436 60.0501 77.9616 69.2228C71.3481 74.9031 63.6181 77.7486 56.9994 79.1252L56.1751 79.2746L56.1999 79.3323C55.3757 79.4817 54.5514 79.6311 53.7435 79.7393L52.2104 79.9885C51.8147 80.0219 51.4602 80.0718 51.1058 80.1217L50.3968 80.2215L49.0119 80.3386L47.7423 80.4061L47.1488 80.4563L46.5717 80.4652L46.0358 80.4906L45.5576 80.4912L44.8816 80.5085L42.4907 80.5114L41.592 80.4878L40.5531 80.4561L39.4153 80.4327L38.797 80.4252L37.8571 80.3851L37.1975 80.3612L36.1751 80.2882L34.7734 80.2075L32.5471 80.037L31.7638 79.9638L29.4632 79.6203C29.323 79.6122 29.1993 79.5629 29.0591 79.5548L28.251 79.4239C28.1108 79.4158 27.9871 79.3665 27.8469 79.3584L26.2307 79.0966C20.5158 77.9658 14.5691 75.9778 10.0468 72.4546C1.75322 66.0421 0.516473 59.1924 0.905792 53.8989L1.02778 52.5137C1.06066 52.4312 1.03586 52.3735 1.06873 52.291L1.23254 51.4004L1.33089 50.9139L1.46182 50.1058L1.59304 49.5367L2.08506 47.3431C2.88854 43.6485 4.62417 40.3733 6.44287 37.6092L6.81319 37.0399C6.93662 36.8501 7.06006 36.6603 7.1835 36.4706L7.59506 35.9177L8.14649 35.1338L8.54161 34.6221L9.9574 32.7489L10.5665 31.9402L10.8546 31.5771C10.9288 31.511 10.9616 31.4286 10.9945 31.3461L11.118 31.1563C11.6858 30.3311 12.2621 29.6049 12.7149 29.0685L13.1512 28.5733L14.1393 27.5333L14.4358 27.2691L15.0616 26.6582L15.4323 26.328L15.984 25.7832L16.5934 25.2136L17.4828 24.421C17.557 24.355 17.6311 24.2889 17.7052 24.2229L18.2076 23.8018C18.2817 23.7357 18.3558 23.6697 18.4712 23.6201L19.0149 23.2154C19.089 23.1494 19.2043 23.0998 19.2949 22.9925L19.855 22.5466L20.4563 22.1172C26.1896 18.0456 34.9316 13.5005 46.4403 12.926Z" fill="#9AD2FF"/>
<path d="M66.1969 62.6596H33.1585C30.3665 62.6596 28.1562 60.3911 28.1562 57.6573V19.2675C28.1562 19.2675 18.675 18.5113 18.8495 17.8715C19.3149 15.8357 19.6639 11.2405 21.1762 9.14655C21.6997 8.44856 32.5768 8.56489 33.1585 8.56489H66.1969C68.9889 8.56489 71.1992 10.8334 71.1992 13.5672V57.6573C71.1992 60.3911 68.9307 62.6596 66.1969 62.6596Z" fill="#F6F8FB"/>
<path d="M58.4026 55.0977L52.5859 59.751H56.0759L56.6576 64.4043L61.8926 58.5876L65.9642 59.1693L71.7808 64.9859V59.751L75.2708 59.1693L70.0358 55.0977H58.4026Z" fill="#FFAC5F"/>
<path d="M50.2589 20.1979C51.8651 20.1979 53.1672 19.026 53.1672 17.5804C53.1672 16.1348 51.8651 14.9629 50.2589 14.9629C48.6527 14.9629 47.3506 16.1348 47.3506 17.5804C47.3506 19.026 48.6527 20.1979 50.2589 20.1979Z" fill="#E6464C"/>
<path d="M63.3466 59.7508C66.3984 59.7508 68.8724 57.2768 68.8724 54.225C68.8724 51.1732 66.3984 48.6992 63.3466 48.6992C60.2948 48.6992 57.8208 51.1732 57.8208 54.225C57.8208 57.2768 60.2948 59.7508 63.3466 59.7508Z" fill="#FFAC5F"/>
<path d="M19.1983 19.7329H27.9233V63.2413C27.9233 63.7648 28.3304 64.2301 28.9121 64.2301H55.0288V65.2189C55.0288 65.6261 55.2614 65.9751 55.6104 66.0914C55.7268 66.1496 55.8431 66.1496 55.9594 66.1496C56.1921 66.1496 56.4829 66.0333 56.6574 65.8588L58.2861 64.2301H69.105L70.7337 65.8588C70.9082 66.0333 71.1408 66.1496 71.4317 66.1496C71.548 66.1496 71.6643 66.1496 71.7807 66.0914C72.1297 65.9169 72.3623 65.5679 72.3623 65.2189V60.3911H75.2706C75.7941 60.3911 76.2595 59.984 76.2595 59.4023C76.2595 59.1115 76.1431 58.8788 75.9686 58.7043L72.4205 55.447V14.7306C72.3623 11.0661 69.3958 8.09961 65.7314 8.09961H24.0261C20.827 8.09961 18.2095 10.7171 18.2095 13.9162V18.744C18.2095 19.2675 18.6166 19.7329 19.1983 19.7329ZM55.9594 59.3441H54.4471L57.5299 56.2613C58.1116 57.5992 59.1004 58.7043 60.3801 59.4023L56.9482 62.8341V60.333C56.8901 59.8095 56.4829 59.3441 55.9594 59.3441ZM58.8096 53.5857C58.8096 50.91 60.9617 48.7579 63.6374 48.7579C66.313 48.7579 68.4652 50.91 68.4652 53.5857C68.4652 56.2613 66.313 58.4135 63.6374 58.4135C61.0199 58.4135 58.8096 56.2032 58.8096 53.5857ZM60.2056 62.2525L62.2996 60.1585C63.2302 60.333 64.1609 60.333 65.0915 60.1585L67.1855 62.2525H60.2056ZM71.4317 58.4135C70.9082 58.4135 70.4428 58.8206 70.4428 59.4023V62.8923L67.011 59.4605C68.407 58.6462 69.454 57.4247 69.9775 55.9123L72.7113 58.4717H71.4317V58.4135ZM65.7314 10.0191C68.3488 10.0191 70.4428 12.1131 70.4428 14.7306V53.5857V53.5275C70.4428 49.8049 67.4182 46.7802 63.6955 46.7802C59.9729 46.7802 56.9482 49.8049 56.9482 53.5275C56.9482 53.702 56.9482 53.8765 56.9482 54.051L51.3643 59.635C51.0153 60.0421 51.0153 60.6238 51.3643 61.031C51.5388 61.2055 51.7714 61.3218 52.0623 61.3218H54.9706V62.3106H29.8427V13.9162C29.8427 12.4621 29.3192 11.1243 28.3304 10.0191H65.7314ZM20.129 13.9162C20.129 11.7641 21.874 10.0191 24.0261 10.0191C26.1783 10.0191 27.9233 11.7641 27.9233 13.9162V17.8134H20.129V13.9162Z" fill="#0E002D"/>
<path d="M36.5899 24.5605H63.6954C64.2189 24.5605 64.6842 24.9677 64.6842 25.5494C64.6842 26.0729 64.2771 26.5382 63.6954 26.5382H36.5899C36.0664 26.5382 35.6011 26.131 35.6011 25.5494C35.6011 24.9677 36.0664 24.5605 36.5899 24.5605Z" fill="#0E002D"/>
<path d="M36.5899 30.3193H63.6954C64.2189 30.3193 64.6842 30.7265 64.6842 31.3082C64.6842 31.8317 64.2771 32.297 63.6954 32.297H36.5899C36.0664 32.297 35.6011 31.8898 35.6011 31.3082C35.6011 30.7847 36.0664 30.3193 36.5899 30.3193Z" fill="#0E002D"/>
<path d="M36.5899 36.1357H63.6954C64.2189 36.1357 64.6842 36.5429 64.6842 37.1246C64.6842 37.6481 64.2771 38.1134 63.6954 38.1134H36.5899C36.0664 38.1134 35.6011 37.7062 35.6011 37.1246C35.6011 36.6011 36.0664 36.1357 36.5899 36.1357Z" fill="#0E002D"/>
<path d="M64.6261 41.9521H35.6011V43.8716H64.6261V41.9521Z" fill="#0E002D"/>
<path d="M50.1427 21.6527C52.2949 21.6527 54.0399 19.9077 54.0399 17.7555C54.0399 15.6034 52.2949 13.8584 50.1427 13.8584C47.9906 13.8584 46.2456 15.6034 46.2456 17.7555C46.2456 19.9077 47.9906 21.6527 50.1427 21.6527ZM50.1427 15.8361C51.1897 15.8361 52.0622 16.7085 52.0622 17.7555C52.0622 18.8025 51.1897 19.675 50.1427 19.675C49.0958 19.675 48.2233 18.8025 48.2233 17.7555C48.1651 16.7085 49.0376 15.8361 50.1427 15.8361Z" fill="#0E002D"/>
</svg>
