<svg width="91" height="90" viewBox="0 0 91 90" fill="none" xmlns="http://www.w3.org/2000/svg">
<path d="M69.4633 18.2534C83.9756 28.8379 92.4581 46.9875 88.7333 62.3809C85.3593 76.1297 72.9236 84.5218 58.3433 84.994C49.3154 85.2874 41.2275 82.5297 34.9907 79.3023L34.2283 78.8824L34.2108 78.9458C33.4484 78.5259 32.686 78.1059 31.9637 77.6631L30.5642 76.8585C30.2231 76.6256 29.9045 76.4333 29.586 76.241L28.9489 75.8564L27.7549 75.0413L26.6863 74.2616L26.1745 73.9123L25.7029 73.5401L25.2538 73.2084L24.8675 72.8944L24.3105 72.464L22.3786 70.8941L21.6686 70.2838L20.8506 69.5747L19.9473 68.8074L19.453 68.3946L18.7204 67.7437L18.2035 67.2904L17.4255 66.5584L16.3465 65.5707L14.6602 63.9674L14.0754 63.3924L12.4414 61.5987C12.3335 61.4999 12.2657 61.3783 12.1578 61.2795L11.5905 60.641C11.4826 60.5423 11.4147 60.4206 11.3068 60.3218L10.1722 59.0449C6.29357 54.3625 2.78444 48.8271 1.42227 42.9736C-1.10757 32.2787 2.34298 25.8671 6.09534 21.7967L7.09351 20.7448C7.17362 20.699 7.19107 20.6355 7.27118 20.5897L7.98186 19.9695L8.37726 19.6366L9.00783 19.0622L9.48333 18.6834L11.3053 17.2141C14.3534 14.7229 17.8817 13.1874 21.1451 12.1243L21.8138 11.9025C22.0367 11.8286 22.2596 11.7546 22.4825 11.6807L23.1738 11.4995L24.128 11.2214L24.7793 11.0631L27.1388 10.4631L28.1558 10.2027L28.6242 10.0954C28.7269 10.0902 28.807 10.0444 28.8871 9.99859L29.11 9.92466C30.1043 9.62371 31.0412 9.40911 31.7551 9.26843L32.429 9.15066L33.9021 8.95042L34.313 8.92948L35.2149 8.84178L35.7285 8.8156L36.5278 8.73314L37.3896 8.66835L38.6224 8.6055C38.7251 8.60027 38.8278 8.59503 38.9306 8.58979L39.6096 8.57603C39.7123 8.57079 39.8151 8.56556 39.9404 8.60088L40.6421 8.62767C40.7448 8.62243 40.8702 8.65775 41.0129 8.62962L41.7547 8.63352L42.519 8.67797C49.7914 9.12058 59.8001 11.1547 69.4633 18.2534Z" fill="#9AD2FF"/>
<path d="M70.0561 42.0797L52.8807 44.9455L37.1213 42.0797C34.4742 42.0797 32.3196 39.8992 32.3196 37.2203V23.0781C32.3196 20.3992 19.3919 16.2251 22.039 16.2251L53.3116 6.31934L84.5843 15.7267C87.2314 15.7267 74.7962 20.3992 74.7962 23.0781V37.2203C74.8578 39.8992 72.7032 42.0797 70.0561 42.0797Z" fill="#F6F8FB"/>
<path d="M83.5991 44.4473H78.7358V55.8482H83.5991V44.4473Z" fill="#E6464C"/>
<path d="M53.804 16.2252C55.436 16.2252 56.7589 15.1095 56.7589 13.7332C56.7589 12.3569 55.436 11.2412 53.804 11.2412C52.1721 11.2412 50.8491 12.3569 50.8491 13.7332C50.8491 15.1095 52.1721 16.2252 53.804 16.2252Z" fill="#FFAC5F"/>
<path d="M30.0414 39.4008C30.0414 40.0238 30.4723 40.5845 31.0879 40.7714L52.8802 46.503C53.0034 46.503 53.1265 46.5653 53.2496 46.5653C53.3727 46.5653 53.4958 46.5653 53.619 46.503L75.4113 40.7091C76.0269 40.5222 76.4579 40.0238 76.4579 39.3385V20.8976L79.9668 19.9631V42.8273H78.9818C78.2431 42.8273 77.6275 43.4503 77.6275 44.1979V48.3097C77.0119 49.1196 76.581 50.1164 76.581 51.2378C76.581 52.1724 76.8272 53.1069 77.3813 53.8545L80.1515 58.2778C80.3977 58.7139 80.8286 58.9008 81.3211 58.9008C81.8136 58.9008 82.2445 58.6516 82.4908 58.2778L85.261 53.8545C85.261 53.8545 85.261 53.8545 85.261 53.7922C85.7535 53.0446 85.9997 52.1101 85.9997 51.1755C85.9997 50.0541 85.6303 49.0573 84.9532 48.2474V44.1356C84.9532 43.388 84.3376 42.765 83.5989 42.765H82.6754V19.2155L88.9546 17.5334C89.5702 17.3465 90.0011 16.8481 90.0011 16.1628C90.0011 15.5398 89.5702 14.9791 88.9546 14.7922L53.5574 5.44712C53.3112 5.38482 53.1265 5.38482 52.8802 5.44712L17.483 14.8545C16.8674 15.0414 16.4365 15.5398 16.4365 16.2251C16.4365 16.8481 16.8674 17.4088 17.483 17.5957L30.0414 20.9599V39.4008ZM73.6261 38.2794L53.188 43.6995L32.8116 38.2794V21.5829L52.8802 26.9407C53.0034 26.9407 53.1265 27.003 53.2496 27.003C53.3727 27.003 53.4958 27.003 53.619 26.9407L73.6261 21.5829V38.2794ZM83.2295 51.2378C83.2295 51.6116 83.1064 51.9855 82.9217 52.3593C82.9217 52.3593 82.9217 52.4216 82.8601 52.4216L81.2596 54.9759L79.659 52.4216L79.5974 52.3593C79.3512 52.0478 79.2896 51.674 79.2896 51.2378C79.2896 50.1164 80.1515 49.2442 81.2596 49.2442C82.3676 49.3065 83.2295 50.1787 83.2295 51.2378ZM80.3362 46.5653V45.6308H82.183V46.5653C81.8752 46.503 81.5674 46.4407 81.2596 46.4407C80.9518 46.503 80.644 46.503 80.3362 46.5653ZM23.2697 16.1628L53.188 8.25063L83.1679 16.2251L81.1364 16.7858L58.2976 14.3561C58.1129 11.6771 55.8967 9.55894 53.188 9.55894C50.3563 9.55894 48.017 11.864 48.017 14.7922C48.017 15.4152 48.2632 16.5989 50.11 17.2842C50.9719 17.5957 52.0184 17.7826 53.188 17.7826C54.6655 17.7826 55.8967 17.5334 56.7585 17.035L73.6261 18.8417L53.188 24.2618L23.2697 16.1628ZM55.5889 14.4184C54.7271 14.9791 51.7106 14.9791 50.8488 14.4184C50.9719 13.1724 51.9568 12.2379 53.2496 12.2379C54.4808 12.2379 55.4658 13.2347 55.5889 14.4184Z" fill="#0E002D"/>
<path d="M31.642 62.3273C41.0257 62.3273 48.6327 54.6289 48.6327 45.1324C48.6327 35.6359 41.0257 27.9375 31.642 27.9375C22.2583 27.9375 14.6514 35.6359 14.6514 45.1324C14.6514 54.6289 22.2583 62.3273 31.642 62.3273Z" fill="#88EFF8"/>
<path d="M31.1497 44.2596C30.1647 44.1973 29.426 43.3874 29.426 42.3905C29.426 41.3937 30.2262 40.5838 31.2112 40.5838C31.6421 40.5838 32.0731 40.7707 32.4424 41.0822C32.6271 41.2691 32.7502 41.456 32.8118 41.6429C32.9965 42.079 33.4889 42.3905 33.9814 42.3282C34.6586 42.3282 35.1511 41.7052 35.1511 41.0822C35.1511 40.9576 35.1511 40.8953 35.0895 40.7707C34.8433 40.21 34.5355 39.7116 34.1046 39.3378C33.6121 38.8394 33.058 38.5279 32.3809 38.341V36.9081C32.3809 36.2228 31.8268 35.6621 31.1497 35.6621C30.4725 35.6621 29.9184 36.2228 29.9184 36.9081V38.341C28.7488 38.6525 27.8254 39.4624 27.3329 40.5215C26.3479 42.702 27.2098 45.2564 29.3644 46.3155C29.9184 46.5647 30.5341 46.7516 31.1497 46.7516C32.1346 46.7516 32.9349 47.6238 32.9349 48.6206C32.9349 49.6174 32.1346 50.4273 31.1497 50.4273C30.4109 50.4273 29.7953 49.9912 29.4875 49.3059C29.3028 48.8698 28.8104 48.5583 28.3794 48.5583C27.7023 48.5583 27.1482 49.119 27.2098 49.8043C27.2098 49.9289 27.2098 50.0535 27.2714 50.1781C27.7638 51.3618 28.7488 52.234 29.98 52.6078V53.9784C29.98 54.6637 30.5341 55.2244 31.2112 55.2244C31.8884 55.2244 32.4424 54.6637 32.4424 53.9784V52.6078C34.4124 51.9848 35.7051 49.9912 35.3973 47.9353C35.028 45.8171 33.2427 44.3219 31.1497 44.2596Z" fill="#0E002D"/>
<path d="M31.2111 27.1895C21.2383 27.1895 13.1123 35.4131 13.1123 45.568C13.1123 55.723 21.2383 63.8843 31.2111 63.8843C41.1838 63.8843 49.3098 55.6607 49.3098 45.568C49.3098 35.4754 41.2454 27.1895 31.2111 27.1895ZM31.2111 61.4546C22.531 61.4546 15.5132 54.3524 15.5132 45.568C15.5132 36.7837 22.531 29.6815 31.2111 29.6815C39.8911 29.6815 46.9089 36.7837 46.9089 45.568C46.9089 54.3524 39.8911 61.4546 31.2111 61.4546Z" fill="#0E002D"/>
</svg>
