<svg width="30" height="198" viewBox="0 0 30 198" fill="none" xmlns="http://www.w3.org/2000/svg">
<path fill-rule="evenodd" clip-rule="evenodd" d="M6.21906 187.572L6.21906 192.631H13.4788V187.572C13.4788 185.217 11.9728 183.672 9.84932 183.672C7.72433 183.672 6.21906 185.217 6.21906 187.572ZM28.9251 183.402L17.958 188.77V192.631H28.9251V198H1.43042L1.43042 187.225C1.43042 181.625 5.25322 178.304 9.84932 178.304C13.7103 178.304 16.1042 180.66 17.0701 183.325L28.9251 177.184V183.402Z" fill="white"/>
<path fill-rule="evenodd" clip-rule="evenodd" d="M28.9251 172.932H1.43042L1.43042 154.821H6.21906L6.21906 167.566H12.6673L12.6673 156.714H17.4559V167.566H24.1373V154.821H28.9251V172.932Z" fill="white"/>
<path fill-rule="evenodd" clip-rule="evenodd" d="M28.9251 149.76H1.43042L1.43042 144.392H24.1373V133.092H28.9251V149.76Z" fill="white"/>
<path fill-rule="evenodd" clip-rule="evenodd" d="M9.54062 118.328L19.542 121.804V114.969L9.54062 118.328ZM28.9251 111.918L24.0601 113.54V123.311L28.9251 124.969V130.569L1.43042 120.568L1.43042 116.359L28.9251 106.321V111.918Z" fill="white"/>
<path fill-rule="evenodd" clip-rule="evenodd" d="M17.65 94.4172H28.9251V99.7483H17.65L1.43042 108.011L1.43042 102.18L12.513 97.0442L1.43042 91.9858L1.43042 86.1534L17.65 94.4172Z" fill="white"/>
<path fill-rule="evenodd" clip-rule="evenodd" d="M26.03 49.6185C28.3078 51.8206 29.1567 54.4453 29.1567 57.3802C29.1567 60.3923 28.077 62.865 26.1454 64.7951C23.3648 67.5749 19.9271 67.4977 15.1782 67.4977C10.4285 67.4977 6.99158 67.5749 4.21023 64.7951C2.27934 62.865 1.19891 60.4711 1.19891 57.3802C1.19891 51.0092 5.36861 47.764 10.0029 47.032V52.4373C7.41565 53.0554 5.98677 54.6386 5.98677 57.3802C5.98677 58.8465 6.56674 60.0447 7.45462 60.8172C8.61378 61.8594 9.88753 62.1307 15.1782 62.1307C20.4688 62.1307 21.7808 61.8594 22.9407 60.8172C23.8278 60.0447 24.3696 58.8465 24.3696 57.3802C24.3696 55.7573 23.7896 54.4453 22.8246 53.5574C21.8198 52.668 20.5842 52.3227 19.1553 52.3227H18.1123V57.3802H13.6332L13.6332 46.9923H17.6501C21.6264 46.9923 24.0211 47.6884 26.03 49.6185Z" fill="#79B9ED"/>
<path fill-rule="evenodd" clip-rule="evenodd" d="M29.1567 33.3965C29.1567 37.5662 28.2688 40.7319 25.5272 43.4361L22.0513 39.9601C23.7896 38.2226 24.3696 35.8692 24.3696 33.3186C24.3696 30.1521 23.1715 28.4528 20.9708 28.4528C20.005 28.4528 19.1943 28.7225 18.6533 29.3024C18.1513 29.8426 17.8816 30.4608 17.6883 31.7353L17.2252 35.0561C16.8768 37.4111 16.144 39.1502 14.9459 40.3865C13.6332 41.6985 11.8566 42.3548 9.54064 42.3548C4.63507 42.3548 1.19891 38.7238 1.19891 32.7783C1.19891 28.993 2.12655 26.2514 4.40355 23.8956L7.76487 27.2944C6.10292 29.0327 5.87062 31.1172 5.87062 32.9319C5.87062 35.7897 7.45462 37.1796 9.34731 37.1796C10.0419 37.1796 10.7762 36.948 11.3164 36.3696C11.8184 35.8279 12.2433 34.9415 12.3976 33.8198L12.8606 30.577C13.2083 28.0661 13.9037 26.4844 14.9849 25.3237C16.3748 23.8567 18.3828 23.2019 20.8149 23.2019C26.1454 23.2019 29.1567 27.6413 29.1567 33.3965Z" fill="#79B9ED"/>
<path fill-rule="evenodd" clip-rule="evenodd" d="M28.9251 18.7297H1.43042L1.43042 0.619722H6.21906L6.21906 13.3634H12.6673L12.6673 2.51241H17.4559V13.3634L24.1373 13.3634V0.619722H28.9251V18.7297Z" fill="#79B9ED"/>
<path fill-rule="evenodd" clip-rule="evenodd" d="M2.36116 72.4353C1.35947 72.4353 0.544861 73.5282 0.544861 74.8713C0.544861 76.1497 1.28229 77.1888 2.21461 77.2902C2.20603 77.298 2.20058 77.3026 2.19356 77.3089L28.0154 84.1874C28.6726 83.7992 29.2034 83.2021 29.4599 82.4319C29.8013 81.4107 29.5854 80.3373 28.9906 79.4993L2.95828 72.5631C2.96373 72.5709 2.96763 72.5779 2.97387 72.5873C2.78133 72.4945 2.57865 72.4353 2.36116 72.4353Z" fill="#B30838"/>
</svg>
