<svg width="136" height="20" viewBox="0 0 136 20" fill="none" xmlns="http://www.w3.org/2000/svg">
<path fill-rule="evenodd" clip-rule="evenodd" d="M7.17238 3.90278H3.69262V8.89616H7.17238C8.79216 8.89616 9.8554 7.86027 9.8554 6.39974C9.8554 4.93813 8.79216 3.90278 7.17238 3.90278ZM10.0409 19.5204L6.3483 11.977H3.69263V19.5204H0V0.60907H7.41099C11.2629 0.60907 13.547 3.23847 13.547 6.39974C13.547 9.05541 11.9266 10.702 10.094 11.3663L14.3174 19.5204H10.0409Z" fill="white"/>
<path fill-rule="evenodd" clip-rule="evenodd" d="M17.2423 19.5204V0.60907H29.6992V3.90278H20.9328V8.33801H28.3974V11.6317H20.9328V16.2273H29.6992V19.5204H17.2423Z" fill="white"/>
<path fill-rule="evenodd" clip-rule="evenodd" d="M33.1801 19.5204V0.60907H36.8727V16.2273H44.6451V19.5204H33.1801Z" fill="white"/>
<path fill-rule="evenodd" clip-rule="evenodd" d="M54.7997 6.18741L52.4089 13.0665H57.11L54.7997 6.18741ZM59.2086 19.5204L58.0934 16.1742H51.3724L50.232 19.5204H46.3801L53.2592 0.60907H56.1546L63.0589 19.5204H59.2086Z" fill="white"/>
<path fill-rule="evenodd" clip-rule="evenodd" d="M71.2462 11.7652V19.5204H67.5793V11.7652L61.8964 0.60907H65.9069L69.4393 8.23185L72.9185 0.60907H76.9301L71.2462 11.7652Z" fill="white"/>
<path fill-rule="evenodd" clip-rule="evenodd" d="M102.06 17.5291C100.545 19.0958 98.7396 19.6797 96.7209 19.6797C94.6491 19.6797 92.9483 18.9371 91.6208 17.6085C89.7088 15.6959 89.7619 13.3314 89.7619 10.065C89.7619 6.79812 89.7088 4.43413 91.6208 2.52107C92.9483 1.19297 94.5949 0.449829 96.7209 0.449829C101.103 0.449829 103.335 3.31782 103.839 6.50537H100.121C99.6956 4.72581 98.6066 3.74301 96.7209 3.74301C95.7123 3.74301 94.8882 4.14192 94.3569 4.75262C93.64 5.54991 93.4534 6.42602 93.4534 10.065C93.4534 13.704 93.64 14.6064 94.3569 15.4042C94.8882 16.0144 95.7123 16.3871 96.7209 16.3871C97.8372 16.3871 98.7396 15.9881 99.3503 15.3244C99.962 14.6332 100.2 13.7834 100.2 12.8006V12.0832H96.7209V9.00233H103.866V11.7652C103.866 14.5003 103.387 16.1474 102.06 17.5291Z" fill="#79B9ED"/>
<path fill-rule="evenodd" clip-rule="evenodd" d="M113.217 19.6797C110.349 19.6797 108.172 19.069 106.312 17.1833L108.703 14.7925C109.898 15.9881 111.517 16.3871 113.271 16.3871C115.449 16.3871 116.618 15.563 116.618 14.0493C116.618 13.385 116.432 12.8274 116.033 12.4553C115.662 12.11 115.237 11.9245 114.36 11.7915L112.076 11.473C110.456 11.2334 109.26 10.7293 108.41 9.90525C107.507 9.00233 107.056 7.78039 107.056 6.18742C107.056 2.81328 109.553 0.449829 113.643 0.449829C116.246 0.449829 118.132 1.08788 119.752 2.65404L117.415 4.96602C116.219 3.8229 114.785 3.66312 113.537 3.66312C111.571 3.66312 110.615 4.75262 110.615 6.05445C110.615 6.53218 110.775 7.03726 111.172 7.40883C111.545 7.75412 112.155 8.04634 112.926 8.1525L115.157 8.47099C116.884 8.71012 117.972 9.18839 118.77 9.93206C119.779 10.8881 120.229 12.2692 120.229 13.9421C120.229 17.6085 117.176 19.6797 113.217 19.6797Z" fill="#79B9ED"/>
<path fill-rule="evenodd" clip-rule="evenodd" d="M123.305 19.5204V0.60907H135.762V3.90278H126.996V8.33801H134.46V11.6317H126.996V16.2273H135.762V19.5204H123.305Z" fill="#79B9ED"/>
<path fill-rule="evenodd" clip-rule="evenodd" d="M86.3657 1.24928C86.3657 0.560301 85.614 0 84.6902 0C83.8108 0 83.0961 0.50722 83.0264 1.14848C83.0211 1.14259 83.0178 1.13883 83.0135 1.13401L78.2823 18.8948C78.5494 19.3468 78.9601 19.7119 79.4898 19.8883C80.1922 20.1231 80.9305 19.9746 81.5069 19.5655L86.2778 1.65999C86.2724 1.66375 86.2676 1.66643 86.2611 1.67072C86.325 1.53828 86.3657 1.39888 86.3657 1.24928Z" fill="#B30838"/>
</svg>
