<svg width="45" height="46" viewBox="0 0 45 46" fill="none" xmlns="http://www.w3.org/2000/svg">
<path fill-rule="evenodd" clip-rule="evenodd" d="M16.0133 17.0009C17.0763 17.0908 18.1101 17.393 19.0532 17.8893C18.789 18.3693 18.5365 18.857 18.2975 19.3518C18.7665 19.4938 19.2226 19.6787 19.6597 19.9049C17.7489 23.3657 16.4507 27.2534 16.4507 31.2716C16.4525 32.8006 16.6345 34.3179 16.989 35.7934C17.3382 36.7663 17.7655 37.7134 18.2684 38.6252C18.1663 38.6725 18.0636 38.7185 17.9603 38.763C18.2294 39.4059 18.5336 40.0357 18.8721 40.6495C17.2132 41.4188 15.4044 41.8153 13.5742 41.8109C6.92096 41.8109 2.37252 36.7784 1.02182 30.8929C0.352685 29.0856 0 27.1399 0 25.1942C0 18.0112 4.96239 10.7151 10.2749 6.33679C15.3365 2.08335 19.1728 0.387777 21.6525 0.0509844C24.246 -0.268387 25.4888 0.95103 25.4888 2.63499C25.4888 2.72995 25.4823 2.82381 25.4697 2.91655C25.8875 3.37527 26.0925 3.98323 26.0925 4.66803C26.0925 6.47839 23.7389 7.88339 22.0613 8.88477C21.7615 9.06378 21.4832 9.22989 21.2438 9.38311C16.8388 12.016 13.8793 14.474 13.1738 16.4725C13.8568 16.8281 14.8579 16.907 15.5939 16.9651L15.5941 16.9651L15.5944 16.9651C15.7472 16.9772 15.8886 16.9883 16.0133 17.0009ZM34.4892 21.0092C34.6422 21.0213 34.7838 21.0324 34.9087 21.045C39.4287 21.4209 42.6136 25.5538 43.5456 29.8475C44.1273 31.3273 44.4429 32.9004 44.4516 34.404C44.4516 41.0265 38.9086 45.8519 32.4905 45.8519C25.9058 45.8519 21.3822 40.9188 19.9822 35.109C19.271 33.2534 18.8955 31.2458 18.8955 29.2383C18.8955 22.0553 23.855 14.7592 29.1704 10.3809C34.2291 6.1275 38.0653 4.43194 40.548 4.09515C43.1415 3.77287 44.3814 4.99519 44.3814 6.67623C44.3814 6.76405 44.3758 6.85091 44.3651 6.93681C44.7909 7.39692 45.0001 8.00959 45.0001 8.70046C45.0001 10.5101 42.6462 11.9147 40.9682 12.916C40.6675 13.0954 40.3884 13.2619 40.1486 13.4155C35.731 16.0533 32.7673 18.5196 32.0726 20.5197C32.7559 20.8727 33.7541 20.9513 34.4892 21.0092Z" fill="#2C49A4"/>
</svg>
