<svg width="45" height="47" viewBox="0 0 45 47" fill="none" xmlns="http://www.w3.org/2000/svg">
<path fill-rule="evenodd" clip-rule="evenodd" d="M28.9867 29.7559C27.9237 29.666 26.8899 29.3638 25.9468 28.8675C26.211 28.3875 26.4635 27.8998 26.7026 27.4049C26.2335 27.263 25.7773 27.078 25.3402 26.8518C27.251 23.391 28.5492 19.5034 28.5492 15.4851C28.5475 13.9561 28.3654 12.4387 28.0109 10.9631C27.6617 9.9903 27.2345 9.04333 26.7316 8.13165C26.8337 8.08432 26.9364 8.03839 27.0396 7.99388C26.7705 7.35092 26.4663 6.72106 26.1278 6.1072C27.7868 5.33796 29.5956 4.94142 31.4257 4.94585C38.0789 4.94585 42.6273 9.97826 43.9781 15.8637C44.6473 17.671 45 19.6168 45 21.5626C45 28.7456 40.0376 36.0418 34.7251 40.42C29.6635 44.6735 25.8272 46.3691 23.3475 46.7059C20.754 47.0252 19.5112 45.8058 19.5112 44.1218C19.5112 44.0269 19.5177 43.933 19.5303 43.8403C19.1125 43.3815 18.9074 42.7735 18.9074 42.0887C18.9074 40.2783 21.2611 38.8733 22.9386 37.872C23.2385 37.6929 23.5167 37.5268 23.7561 37.3736C28.161 34.7407 31.1205 32.2828 31.8261 30.2843C31.1431 29.9288 30.1421 29.8498 29.4061 29.7917L29.4059 29.7917L29.4056 29.7917C29.2528 29.7796 29.1114 29.7685 28.9867 29.7559ZM10.5108 25.7475C10.3578 25.7354 10.2162 25.7243 10.0912 25.7118C5.57138 25.3359 2.38652 21.2031 1.45444 16.9096C0.872814 15.4298 0.557137 13.8568 0.54847 12.3532C0.54847 5.73066 6.09143 0.905281 12.5096 0.905281C19.0942 0.905281 23.6176 5.83809 25.0178 11.6477C25.729 13.5033 26.1045 15.5109 26.1045 17.5185C26.1045 24.7014 21.145 31.9975 15.8296 36.3758C10.7709 40.6292 6.93464 42.3248 4.45199 42.6616C1.85845 42.9839 0.618614 41.7615 0.618614 40.0805C0.618614 39.9928 0.624142 39.906 0.634846 39.8202C0.209129 39.3601 3.8147e-06 38.7475 3.8147e-06 38.0567C3.8147e-06 36.2471 2.35387 34.8425 4.03187 33.8412C4.33261 33.6617 4.61164 33.4952 4.85152 33.3417C9.26928 30.7037 12.2331 28.2373 12.9276 26.2371C12.2443 25.884 11.246 25.8054 10.5108 25.7475Z" fill="#2C49A4"/>
</svg>
