<svg width="205" height="205" viewBox="0 0 205 205" fill="none" xmlns="http://www.w3.org/2000/svg">
<path d="M129.269 182.246C90.8383 197.966 45.1109 192.625 19.7553 166.595C-2.83335 143.253 -3.86142 108.574 13.1501 79.2908C23.6812 61.1582 38.99 48.5821 52.9361 40.2213L54.6904 39.2301L54.5884 39.1187C56.3427 38.1276 58.0969 37.1364 59.8464 36.2519L63.1321 34.4735C64.0044 34.0846 64.7701 33.691 65.5358 33.2973L67.0672 32.5101L70.1206 31.1489L72.9511 29.9917L74.2597 29.4083L75.5636 28.9317L76.7607 28.4503L77.8465 28.0708L79.3684 27.4969L84.7972 25.5997L86.8573 24.9428L89.2422 24.1934L91.8452 23.3467L93.2557 22.8748L95.4225 22.2226L96.9397 21.7554L99.3199 21.1127L102.568 20.1877L107.759 18.8145L109.597 18.3614L115.094 17.3224C115.419 17.2299 115.739 17.2441 116.064 17.1516L118.003 16.81C118.328 16.7176 118.648 16.7317 118.973 16.6392L122.851 15.956C136.727 14.0057 151.807 13.8191 164.866 18.2461C188.776 26.2542 197.001 40.8357 200.303 53.1679L201.121 56.411C201.112 56.6243 201.213 56.7357 201.204 56.9491L201.536 59.1017L201.698 60.2847L202.039 62.2239L202.191 63.6203L202.808 68.9923C203.904 78.0199 202.552 86.8321 200.606 94.5491L200.215 96.1352C200.085 96.6638 199.954 97.1925 199.824 97.7212L199.326 99.3026L198.694 101.519L198.201 102.994L196.466 108.369L195.722 110.687L195.355 111.74C195.238 111.949 195.229 112.162 195.219 112.375L195.089 112.904C194.452 115.227 193.717 117.333 193.113 118.909L192.513 120.379L191.091 123.523L190.626 124.358L189.688 126.24L189.107 127.283L188.285 128.957L187.351 130.733L185.957 133.236C185.841 133.445 185.725 133.654 185.609 133.862L184.8 135.216C184.684 135.425 184.568 135.633 184.345 135.837L183.43 137.186C183.314 137.395 183.091 137.599 182.97 137.914L182.051 139.37L181.024 140.821C171.22 154.603 154.957 171.84 129.269 182.246Z" fill="#79B9ED"/>
<path d="M30.2072 134.098C31.3644 134.098 32.3024 133.225 32.3024 132.148C32.3024 131.07 31.3644 130.197 30.2072 130.197C29.0501 130.197 28.1121 131.07 28.1121 132.148C28.1121 133.225 29.0501 134.098 30.2072 134.098Z" fill="#88EFF8"/>
<path d="M133.319 99.2897C134.393 99.2897 135.265 97.9462 135.265 96.2889C135.265 94.6317 134.393 93.2882 133.319 93.2882C132.245 93.2882 131.374 94.6317 131.374 96.2889C131.374 97.9462 132.245 99.2897 133.319 99.2897Z" fill="#88EFF8"/>
<path d="M115.51 122.245H21.0778C18.0847 122.245 15.5405 119.695 15.5405 116.694V47.3769C15.5405 44.3762 18.0847 41.8256 21.0778 41.8256H115.51C118.503 41.8256 121.047 44.3762 121.047 47.3769V116.694C121.047 119.845 118.503 122.245 115.51 122.245Z" fill="#F6F8FB"/>
<path d="M68.5186 118.044C71.8247 118.044 74.5048 117.037 74.5048 115.794C74.5048 114.551 71.8247 113.543 68.5186 113.543C65.2125 113.543 62.5324 114.551 62.5324 115.794C62.5324 117.037 65.2125 118.044 68.5186 118.044Z" fill="#9AD2FF"/>
<path d="M113.565 46.627H23.3231C22.7245 46.627 22.1259 46.927 21.6769 47.3771C21.2279 47.8272 20.9286 48.4274 20.9286 49.0275V105.742C20.9286 106.342 21.2279 106.942 21.6769 107.392C22.1259 107.842 22.7245 108.142 23.3231 108.142H113.565C114.163 108.142 114.762 107.842 115.211 107.392C115.66 106.942 115.81 106.342 115.81 105.742V49.0275C115.81 48.4274 115.51 47.8272 115.061 47.3771C114.762 46.927 114.163 46.627 113.565 46.627ZM113.864 105.742C113.864 105.892 113.864 105.892 113.715 106.042C113.715 106.042 113.565 106.192 113.415 106.192H23.3231C23.1734 106.192 23.1734 106.192 23.0238 106.042C23.0238 106.042 22.8741 105.892 22.8741 105.742V49.0275C22.8741 48.8775 22.8741 48.8775 23.0238 48.7275C23.0238 48.7275 23.1734 48.5774 23.3231 48.5774H113.565C113.715 48.5774 113.715 48.5774 113.864 48.7275C113.864 48.7275 114.014 48.8775 114.014 49.0275V105.742H113.864Z" fill="#0E002D" stroke="#0E002D" stroke-width="0.75" stroke-miterlimit="10"/>
<path d="M119.551 42.7254C118.054 41.2251 115.809 40.1748 113.415 40.1748H23.3228C20.9283 40.1748 18.8332 41.075 17.187 42.7254C15.6904 44.3758 14.6429 46.4764 14.6429 48.877V117.144C14.6429 119.244 15.5408 121.195 17.0373 122.395C18.3842 123.745 20.3297 124.496 22.4249 124.496H114.463C116.558 124.496 118.354 123.595 119.85 122.395C121.347 121.195 122.095 119.244 122.245 117.144V104.391V49.027C122.245 46.6264 121.197 44.3758 119.551 42.7254ZM120.299 104.391V117.144C120.299 118.644 119.551 120.145 118.503 121.045C117.456 122.095 116.109 122.695 114.463 122.695H22.4249C20.7787 122.695 19.4318 122.095 18.3842 121.045C17.3366 119.995 16.738 118.644 16.5884 117.144V49.027C16.5884 47.2265 17.3366 45.4261 18.5339 44.2258C19.7311 43.0255 21.3773 42.2753 23.3228 42.2753H113.565C115.36 42.2753 117.007 43.0255 118.204 44.2258C119.401 45.4261 120.149 47.0765 120.149 49.027V104.391H120.299Z" fill="#0E002D" stroke="#0E002D" stroke-width="0.75" stroke-miterlimit="10"/>
<path d="M135.264 94.0383C134.666 93.4382 133.768 92.988 132.87 92.988C131.972 92.988 131.074 93.2881 130.475 93.8883C129.877 94.4884 129.577 95.3886 129.577 96.2889C129.577 97.1891 129.877 97.9393 130.475 98.6895C131.074 99.2896 131.972 99.5897 132.87 99.5897C133.768 99.5897 134.516 99.2896 135.264 98.6895C135.863 98.0893 136.312 97.1891 136.312 96.2889C136.312 95.5387 135.863 94.7885 135.264 94.0383ZM133.917 97.4892C133.618 97.7892 133.319 97.9393 133.02 97.9393C132.571 97.9393 132.271 97.7892 131.972 97.4892C131.673 97.1891 131.523 96.889 131.523 96.4389C131.523 95.9888 131.673 95.6887 131.972 95.3886C132.271 95.0886 132.571 94.9385 133.02 94.9385C133.319 94.9385 133.768 95.0886 133.917 95.3886C134.217 95.6887 134.366 95.9888 134.366 96.4389C134.366 96.889 134.217 97.1891 133.917 97.4892Z" fill="#0E002D"/>
<path d="M97.4022 36.7241C97.7015 37.1742 98.3001 37.3242 98.749 37.0241L102.341 35.0737C102.49 34.9236 102.64 34.9236 102.64 34.7736C102.939 34.1734 102.79 33.5733 102.341 33.4233L98.749 31.3227C98.3001 31.0227 97.7015 31.1727 97.4022 31.6228C97.2525 32.0729 97.4022 32.6731 97.8511 32.9731L99.9463 34.1734L97.8511 35.3737C97.4022 35.6738 97.2525 36.274 97.4022 36.7241Z" fill="#0E002D" stroke="#0E002D" stroke-width="0.75" stroke-miterlimit="10"/>
<path d="M77.5786 68.3838L51.838 83.5376C51.3891 83.8376 51.2394 84.4378 51.5387 84.8879C51.838 85.338 52.4366 85.4881 52.8856 85.188L78.6262 70.0342C79.0752 69.7342 79.2248 69.134 78.9255 68.6839C78.6262 68.3838 78.0276 68.0837 77.5786 68.3838Z" fill="#0E002D" stroke="#0E002D" stroke-width="0.75" stroke-miterlimit="10"/>
<path d="M88.8807 75.737L68.6773 87.59C68.2283 87.8901 68.0787 88.4902 68.378 88.9403C68.6773 89.3904 69.2759 89.5405 69.7249 89.2404L89.9282 77.3875C90.3772 77.0874 90.5269 76.4872 90.2276 76.0371C89.9282 75.587 89.3296 75.437 88.8807 75.737Z" fill="#0E002D" stroke="#0E002D" stroke-width="0.75" stroke-miterlimit="10"/>
<path d="M74.6544 113.243C74.2055 112.793 73.4572 112.493 72.7089 112.493H63.8793C63.131 112.493 62.5324 112.793 62.0834 113.243C61.6345 113.693 61.3352 114.443 61.3352 115.193V116.394C61.3352 117.144 61.6345 117.744 62.0834 118.344C62.5324 118.794 63.2807 119.094 64.029 119.094H72.8586C73.6069 119.094 74.2055 118.794 74.8041 118.344C75.2531 117.894 75.5524 117.144 75.5524 116.394V115.193C75.5524 114.293 75.2531 113.693 74.6544 113.243ZM73.6069 116.244C73.6069 116.394 73.4572 116.694 73.4572 116.694C73.3076 116.844 73.1579 116.844 73.0082 116.844H64.1786C64.029 116.844 63.7297 116.694 63.7297 116.694C63.58 116.544 63.58 116.394 63.58 116.244V115.043C63.58 114.893 63.7297 114.593 63.7297 114.593C63.8793 114.443 64.029 114.443 64.1786 114.443H73.0082C73.1579 114.443 73.4572 114.593 73.4572 114.593C73.6069 114.743 73.6069 114.893 73.6069 115.043V116.244Z" fill="#0E002D"/>
<path d="M39.0369 26.0713L40.8327 25.6212C41.2817 25.4711 41.581 25.021 41.581 24.4209C41.4314 23.8207 40.8327 23.5206 40.3838 23.6707L38.5879 24.1208C37.9893 24.2708 37.69 24.871 37.8397 25.3211C37.9893 25.9212 38.4383 26.2213 39.0369 26.0713Z" fill="#0E002D" stroke="#0E002D" stroke-width="0.75" stroke-miterlimit="10"/>
<path d="M36.6424 27.4219L37.0914 29.0723C37.241 29.6724 37.8396 29.9725 38.2886 29.8225C38.8872 29.6724 39.1865 29.0723 39.0369 28.6222L38.5879 26.9718C38.4383 26.5216 37.9893 26.0715 37.3907 26.2216C36.7921 26.3716 36.4928 26.8217 36.6424 27.4219Z" fill="#0E002D" stroke="#0E002D" stroke-width="0.75" stroke-miterlimit="10"/>
<path d="M35.7442 24.1211C35.8938 24.5712 36.3428 25.0213 36.9414 24.8713C37.54 24.7213 37.8393 24.1211 37.6897 23.671L37.2407 22.0206C37.0911 21.4204 36.4924 21.1204 36.0435 21.2704C35.5945 21.4204 35.1455 21.8706 35.2952 22.4707L35.7442 24.1211Z" fill="#0E002D" stroke="#0E002D" stroke-width="0.75" stroke-miterlimit="10"/>
<path d="M34.0981 27.422L35.894 26.9719C36.4926 26.8218 36.7919 26.2217 36.6423 25.7716C36.4926 25.1714 35.894 24.8714 35.445 25.0214L33.6492 25.4715C33.0506 25.6215 32.7512 26.0716 32.9009 26.6718C33.0506 27.2719 33.6492 27.572 34.0981 27.422Z" fill="#0E002D" stroke="#0E002D" stroke-width="0.75" stroke-miterlimit="10"/>
<path d="M29.7585 128.847C29.0103 128.847 28.4117 129.147 27.9627 129.597C27.5137 130.047 27.2144 130.647 27.2144 131.398C27.2144 132.148 27.5137 132.748 27.9627 133.198C28.4117 133.648 29.0103 133.948 29.7585 133.948C30.5068 133.948 31.1054 133.648 31.5544 133.198C32.0034 132.748 32.3027 131.998 32.3027 131.398C32.3027 130.647 32.0034 130.047 31.5544 129.597C31.1054 129.147 30.3572 128.847 29.7585 128.847ZM30.2075 131.848C30.0579 131.998 29.9082 131.998 29.7585 131.998C29.6089 131.998 29.4592 131.848 29.3096 131.848C29.1599 131.698 29.1599 131.548 29.1599 131.398C29.1599 131.248 29.3096 131.098 29.3096 130.948C29.4592 130.798 29.6089 130.798 29.7585 130.798C29.9082 130.798 30.0579 130.798 30.2075 130.948C30.3572 131.098 30.3572 131.248 30.3572 131.398C30.3572 131.548 30.2075 131.848 30.2075 131.848Z" fill="#0E002D"/>
<path d="M90.9671 129.897C90.6677 129.897 90.5181 129.897 90.3684 129.747C88.2733 129.447 86.6271 128.847 85.1305 128.096C83.3347 127.196 82.1374 126.146 81.2395 124.946H55.3492C54.4513 126.146 53.2541 127.196 51.4582 128.096C49.9617 128.847 48.0162 129.447 45.6217 129.747C45.0231 129.747 44.5741 129.897 44.2748 130.347C43.9755 130.647 43.6762 131.247 43.6762 131.697C43.6762 132.297 43.8258 132.748 44.2748 133.048C44.5741 133.348 45.1727 133.648 45.6217 133.648H90.8174C91.416 133.648 91.865 133.498 92.1643 133.048C92.4636 132.748 92.7629 132.147 92.7629 131.697C92.7629 131.097 92.6133 130.647 92.1643 130.347C92.0146 130.047 91.5657 129.897 90.9671 129.897Z" fill="#F6F8FB" stroke="#0E002D" stroke-width="0.75" stroke-miterlimit="10"/>
<path d="M91.8643 127.947C91.7146 127.947 91.565 127.797 91.4153 127.797C89.1705 127.496 87.5243 126.896 86.0278 126.296C84.3816 125.396 83.334 124.496 82.5857 123.445C82.436 123.145 82.1367 122.995 81.8374 122.995H54.8996C54.6003 122.995 54.301 123.145 54.0017 123.445C53.2534 124.496 52.2058 125.546 50.5596 126.296C49.2127 127.046 47.4169 127.496 45.172 127.797H45.0224C44.2741 127.947 43.5258 128.397 42.9272 128.847C42.1789 129.597 41.73 130.497 41.73 131.547C41.73 132.598 42.1789 133.648 42.9272 134.398C43.6755 135.148 44.5734 135.598 45.7707 135.598H90.9664C92.0139 135.598 93.0615 135.148 93.8098 134.398C94.5581 133.648 95.007 132.748 95.007 131.547C95.007 130.497 94.5581 129.447 93.8098 128.847C93.2112 128.547 92.6126 128.247 91.8643 127.947ZM92.9119 131.848C92.9119 132.448 92.7622 132.898 92.3133 133.198C92.0139 133.498 91.4153 133.798 90.9664 133.798H45.7707C45.172 133.798 44.7231 133.648 44.4238 133.198C44.1245 132.898 43.8251 132.298 43.8251 131.848C43.8251 131.247 43.9748 130.797 44.4238 130.497C44.7231 130.197 45.172 129.897 45.7707 129.897C48.1651 129.597 50.1106 128.997 51.6072 128.247C53.2534 127.346 54.6003 126.296 55.4982 125.096H81.3885C82.2864 126.296 83.4836 127.346 85.2795 128.247C86.6264 128.997 88.4222 129.597 90.5174 129.897C90.667 129.897 90.8167 130.047 90.9664 130.047H91.116C91.565 130.047 92.0139 130.347 92.3133 130.647C92.6126 130.797 92.9119 131.247 92.9119 131.848Z" fill="#0E002D" stroke="#0E002D" stroke-width="0.75" stroke-miterlimit="10"/>
<path fill-rule="evenodd" clip-rule="evenodd" d="M121.22 140.451L120.224 132.788C120.224 132.646 120.224 132.646 120.224 132.504V122.004C120.224 121.579 120.366 121.153 120.509 120.869L128.193 107.957C128.478 107.531 128.905 107.105 129.474 106.963L134.597 105.261C135.024 105.119 135.451 105.119 135.877 105.261L144.131 107.247H144.273L152.954 108.524C153.665 108.666 154.377 109.092 154.662 109.801L159.073 118.315C159.215 118.741 159.358 119.166 159.358 119.592L158.646 129.099C158.646 129.383 158.504 129.667 158.504 129.95L151.389 145.559C151.104 146.268 151.104 146.978 151.389 147.545L153.096 151.093C153.665 152.086 154.804 152.653 155.942 152.228L169.034 147.403C169.461 147.261 169.746 146.978 170.03 146.694L187.818 126.261C187.961 125.977 188.103 125.835 188.245 125.552L193.511 111.078C193.653 110.653 191.091 96.6051 190.949 96.1794L186.68 87.9495C189.165 90.7874 189.165 87.2113 189.165 87.0694L176.292 69.0775C178.983 69.0775 176.576 65.8176 176.292 65.5338L167.184 61.1314C166.9 60.8476 166.473 60.7057 166.046 60.5638L150.392 57.4421C150.25 57.4421 149.966 57.4421 149.823 57.4421L131.324 58.7192C130.612 58.7192 123.782 59.8543 123.07 60.28L114.532 68.7937C113.536 69.3613 113.109 73.0506 102.578 75.4628L96.317 90.7874C96.1747 91.2131 96.0324 91.6388 96.1747 92.0644L100.302 112.355C100.302 112.497 100.302 112.639 100.302 112.923L99.8746 128.815C99.8746 129.525 100.159 130.092 100.586 130.518L111.259 140.734C111.544 141.018 111.828 141.16 112.255 141.302L118.232 143.005C119.797 143.43 121.362 142.011 121.22 140.451Z" fill="#73325A" stroke="#73325A" stroke-miterlimit="10"/>
<path fill-rule="evenodd" clip-rule="evenodd" d="M166.843 172.429L150.41 145.349L158.786 130.673L159.638 115.291L150.41 105.695L142.603 107.247L134.937 102.732L125.142 110.07L121.025 123.335V140.974L126.561 158.614L122.728 167.504L123.154 173.995" fill="#F6F8FB"/>
<path fill-rule="evenodd" clip-rule="evenodd" d="M125.774 150.809C126.201 150.951 126.628 151.235 127.055 151.518C128.193 152.086 130.185 152.937 131.466 152.937L130.754 153.363C130.47 153.505 130.328 153.647 130.185 153.789C130.185 153.789 130.043 153.789 130.043 153.931C128.478 154.924 126.485 154.072 126.058 152.228C125.916 151.518 125.774 150.951 125.774 150.809ZM133.601 151.093C128.905 151.093 125.774 148.539 123.497 144.849C119.37 137.896 119.655 129.383 121.22 121.72C122.216 117.18 123.924 112.639 126.628 108.95C130.612 103.558 136.02 102.565 141.996 106.963C142.566 107.389 143.277 107.105 144.131 106.963C144.843 106.68 145.554 106.68 146.266 106.538C147.546 106.396 149.539 106.963 150.677 107.247C151.958 107.673 152.954 108.524 153.808 109.234C156.654 111.646 158.077 116.47 158.077 120.301C158.077 125.268 157.508 128.389 155.658 133.072C153.665 138.038 151.104 141.444 147.689 145.133C146.55 146.126 145.127 147.403 143.989 147.971C141.427 149.248 137.3 151.093 133.601 151.093ZM98.0246 93.4834C98.0246 90.6455 97.8823 88.2333 98.4515 85.3954C98.5938 84.8278 98.8784 84.1184 98.8784 83.267C100.017 79.5777 100.444 78.3007 103.005 75.7466C105.282 73.4763 108.84 73.76 113.963 70.3546C114.674 69.9289 115.67 68.9356 116.097 68.0843C121.647 58.7192 132.889 58.7192 135.308 59.003C137.158 59.1449 139.15 59.7125 140.858 59.003C145.696 57.0165 153.523 56.5908 158.361 60.1382C158.361 60.1382 158.504 60.1382 158.504 60.2801C159.215 60.5638 162.915 61.699 165.477 61.699C171.169 61.699 178.284 68.7937 179.707 74.4695C180.988 79.7196 182.553 81.5643 185.684 85.3954L185.826 85.5373C191.091 91.4969 191.091 100.011 191.091 100.011C193.937 104.267 193.653 112.923 190.949 119.592C189.384 123.849 186.964 127.538 183.834 130.802C181.415 133.356 179.422 134.207 176.719 135.91C175.865 136.477 174.015 141.16 169.603 144.282C168.323 145.275 167.042 146.268 165.619 146.978C163.627 147.971 160.354 149.248 157.365 149.106C157.223 149.106 157.081 149.106 157.081 149.106C156.369 148.964 155.658 148.964 154.804 148.822C153.381 148.539 153.523 148.397 152.242 146.552C152.242 146.41 152.1 146.126 152.1 145.984L152.242 143.288L152.812 142.579C158.219 135.2 162.061 124.558 159.358 114.909C158.219 111.22 156.369 108.24 153.096 106.254C148.542 103.558 144.131 104.977 142.993 104.977C142.423 104.977 139.862 102.707 136.589 102.139C136.162 102.139 135.735 101.997 135.308 101.997C132.462 101.997 131.039 102.281 128.478 103.984C122.785 107.673 119.512 116.896 118.374 123.423C118.232 124.558 118.089 125.552 117.947 126.545C117.805 127.822 117.947 128.957 117.805 130.234C117.663 131.511 117.663 133.356 117.947 135.2C118.232 137.471 118.659 139.741 119.37 141.444C119.512 142.011 119.797 142.437 119.797 142.863C118.089 142.863 113.536 141.16 111.828 140.309C104.286 136.619 100.159 129.383 100.159 120.585C100.159 117.038 100.159 115.619 100.728 111.93C101.724 109.801 100.444 106.254 100.301 105.544C99.5899 103.274 99.3053 102.565 98.8784 100.011C98.4515 98.1659 98.0246 95.7537 98.0246 93.4834ZM95.89 90.7874C95.89 97.1727 95.7477 98.4497 97.4554 104.126C98.8784 106.963 98.7361 111.646 98.5938 112.214C97.3131 119.45 97.74 128.957 102.294 134.917C103.717 136.761 105.14 138.464 106.99 139.883C107.132 140.025 107.274 140.025 107.417 140.167L111.97 142.721C113.82 143.572 115.67 144.14 117.52 144.707L120.509 145.275C120.935 145.417 121.078 145.275 121.362 145.701C121.789 146.41 122.359 147.12 122.785 147.829C123.497 148.68 123.782 151.66 124.066 152.937C124.351 154.356 124.493 155.775 124.778 157.194C125.062 158.613 124.493 158.471 123.355 160.458C121.505 163.437 121.22 166.275 121.22 170.107C121.22 170.674 121.647 172.235 121.647 172.235C123.07 173.654 123.212 167.269 123.782 165.282C124.778 160.458 128.335 156.91 132.604 154.924C134.027 154.214 135.45 153.647 137.158 152.937C138.012 152.653 138.866 152.512 139.577 152.228C140.431 151.944 141.285 151.802 141.996 151.376C143.419 150.809 145.127 150.099 146.266 149.248L146.977 148.68C148.542 147.403 150.819 147.687 151.958 149.248C154.946 153.647 157.934 157.904 160.781 162.444C161.065 162.728 161.207 162.87 161.35 163.154C162.346 164.715 165.761 170.958 165.761 170.958C167.184 172.377 167.611 169.823 167.042 168.829C166.9 168.546 166.9 168.404 166.757 168.262C166.473 167.836 166.33 167.552 166.046 166.985C163.769 162.444 159.642 156.627 156.654 152.37C156.227 151.944 156.085 151.66 155.8 151.093L158.219 151.235C163.627 151.235 168.75 148.255 172.592 144.849C172.876 144.565 173.019 144.424 173.161 144.282C174.442 143.288 177.715 138.038 178.426 137.187C178.426 137.045 178.569 137.045 178.711 137.045C179.138 136.761 179.422 136.619 180.134 136.052C180.134 136.052 180.134 136.052 180.276 136.052L183.407 134.207C184.972 133.356 186.253 132.221 187.391 130.944C187.676 130.518 187.961 130.234 188.103 130.092C189.241 128.673 190.095 127.254 190.949 125.552C196.072 117.18 196.357 108.95 194.222 100.294C192.799 94.6186 194.222 91.7807 187.107 83.267C181.557 76.7398 182.838 73.3344 179.992 69.0775C178.569 66.2396 174.299 59.1449 163.2 58.8611C162.061 58.8611 160.496 58.8611 158.646 57.726C153.096 54.0367 144.416 54.8881 138.723 57.726C137.585 58.2935 121.647 54.8881 114.532 67.6586C112.397 71.3478 104.571 70.4965 101.44 74.3276C97.4554 77.1655 95.89 84.4021 95.89 90.7874Z" fill="#0E002D" stroke="#0E002D" stroke-miterlimit="10"/>
<path d="M122.754 166.947C122.754 166.947 121.336 173.995 126.867 173.995C132.399 173.995 144.88 173.995 150.554 173.995C156.227 173.995 166.865 173.995 166.439 170.471" stroke="#0E002D" stroke-width="3" stroke-miterlimit="10"/>
</svg>
