<svg width="205" height="205" viewBox="0 0 205 205" fill="none" xmlns="http://www.w3.org/2000/svg">
<path d="M166.289 43.2646C196.862 71.3581 211.48 115.014 198.707 149.034C187.19 179.406 156.242 195.088 122.505 192.148C101.615 190.33 83.7211 181.825 70.2222 172.759L68.579 171.593L68.5216 171.733C66.8783 170.567 65.2351 169.401 63.6905 168.194L60.6833 165.977C59.9603 165.353 59.2784 164.827 58.5964 164.302L57.2325 163.25L54.7019 161.066L52.4505 158.997L51.366 158.061L50.38 157.083L49.4351 156.205L48.6298 155.383L47.463 154.25L43.4368 150.144L41.966 148.559L40.2733 146.719L38.3999 144.724L37.3728 143.648L35.8608 141.964L34.7926 140.79L33.1985 138.909L30.9799 136.363L27.5287 132.249L26.3372 130.779L23.0584 126.245C22.8365 125.991 22.7132 125.695 22.4914 125.44L21.3574 123.831C21.1355 123.576 21.0122 123.28 20.7903 123.026L18.5222 119.806C10.8549 108.078 4.27145 94.5094 2.72342 80.808C-0.199503 55.7628 9.49815 42.1159 19.2548 33.8823L21.8417 31.7622C22.0389 31.68 22.0963 31.5404 22.2935 31.4582L24.1003 30.2419L25.1023 29.5927L26.7121 28.4587L27.9112 27.7273L32.5105 24.8838C40.2144 20.0516 48.765 17.5274 56.5766 16.0056L58.1784 15.6848C58.7123 15.5779 59.2462 15.471 59.7801 15.364L61.4229 15.1418L63.6983 14.7715L65.2426 14.5904L70.8446 13.8742L73.2596 13.5614L74.3686 13.4461C74.6068 13.4625 74.8039 13.3803 75.001 13.2981L75.5349 13.1912C77.9088 12.7798 80.1267 12.5492 81.8106 12.4255L83.396 12.3429L86.8461 12.2927L87.799 12.3582L89.9019 12.4069L91.093 12.4887L92.9577 12.5211L94.9621 12.6109L97.8208 12.8073C98.059 12.8236 98.2972 12.84 98.5355 12.8564L100.104 13.012C100.343 13.0284 100.581 13.0447 100.86 13.1597L102.47 13.4139C102.709 13.4302 102.988 13.5452 103.325 13.5204L105.033 13.7336L106.783 14.0452C123.427 17.0555 145.945 24.4424 166.289 43.2646Z" fill="#A8DADC"/>
<path d="M53.5376 53.0132H39.7881C35.874 53.0132 32.6625 49.8031 32.6625 45.8909C32.6625 45.4896 32.6625 45.1887 32.7628 44.7874H23.2285C19.3144 44.7874 16.1029 41.5774 16.1029 37.5648C16.1029 33.5522 19.3144 30.4425 23.2285 30.4425H48.0177C52.0322 30.4425 55.2437 33.6526 55.2437 37.5648C55.2437 37.9661 55.2437 38.3673 55.1434 38.8689C58.3549 39.5711 60.7636 42.4802 60.7636 45.8909C60.7636 49.8031 57.552 53.0132 53.5376 53.0132ZM23.2285 33.7529C21.1209 33.7529 19.4148 35.4582 19.4148 37.5648C19.4148 39.6714 21.1209 41.477 23.2285 41.477H34.9708C35.5729 41.477 36.0747 41.778 36.3758 42.2796C36.6769 42.7811 36.6769 43.383 36.3758 43.8846C36.0747 44.4865 35.874 45.0884 35.874 45.7906C35.874 47.8971 37.5801 49.6025 39.6877 49.6025H53.4372C55.5448 49.6025 57.2509 47.8971 57.2509 45.7906C57.2509 43.684 55.5448 41.9786 53.4372 41.9786H52.7347C52.1325 41.9786 51.6307 41.6777 51.3296 41.1761C51.0285 40.6745 51.0285 40.0727 51.3296 39.5711C51.6307 38.9692 51.8314 38.3673 51.8314 37.6651C51.8314 35.5585 50.1253 33.8532 48.0177 33.8532H23.2285V33.7529Z" fill="#0E002D"/>
<path d="M174.629 140.95C178.91 140.195 182.183 136.42 182.183 131.89V124.088C182.183 119.055 178.029 114.902 172.993 114.902C167.957 114.902 163.802 119.055 163.802 124.088V131.89C163.802 136.42 167.076 140.195 171.356 140.95V149.004H174.503V140.95H174.629ZM166.95 131.89V124.088C166.95 120.816 169.719 118.048 172.993 118.048C176.266 118.048 179.036 120.816 179.036 124.088V131.89C179.036 135.162 176.266 137.93 172.993 137.93C169.719 137.93 166.95 135.288 166.95 131.89Z" fill="#0E002D" stroke="#0E002D" stroke-miterlimit="10"/>
<path d="M179.036 132.016V124.214C179.036 120.942 176.266 118.174 172.993 118.174C169.719 118.174 166.95 120.942 166.95 124.214V132.016C166.95 135.288 169.719 138.056 172.993 138.056C176.392 138.056 179.036 135.413 179.036 132.016Z" fill="#E63946"/>
<path d="M53.9684 42.0295H53.1752C52.5803 42.0295 52.0846 41.743 51.7872 41.2655C51.4898 40.7881 51.4898 40.1196 51.7872 39.6421C52.0846 39.0691 52.2829 38.4006 52.2829 37.8276C52.2829 35.8222 50.5975 34.1033 48.4163 34.1033H23.6302C21.5482 34.1033 19.7636 35.7267 19.7636 37.8276C19.7636 39.8331 21.449 41.552 23.6302 41.552H35.4284C36.0232 41.552 36.519 41.8385 36.8164 42.316C37.1138 42.7935 37.1138 43.462 36.8164 43.9395C36.519 44.5124 36.3207 45.1809 36.3207 45.7539C36.3207 47.7593 38.0061 49.4783 40.1873 49.4783H53.9684C56.0504 49.4783 57.835 47.8548 57.835 45.7539C57.835 43.653 56.1495 42.0295 53.9684 42.0295Z" fill="#79B9ED" stroke="#79B9ED" stroke-miterlimit="10"/>
<path d="M161.914 147.746H47.3483L48.6073 141.454L52.3842 138.937L53.6431 79.7936L47.3483 78.5352L48.6073 73.5017L53.6431 69.7266L58.679 54.6262H66.2328L72.5276 39.5257L102.743 38.2674L105.261 33.2339L108.408 38.519L137.994 39.5257L144.288 53.3678L153.101 54.6262L156.878 70.985L161.914 73.5017L163.173 79.7936L156.878 81.052V136.42L161.914 141.454V147.746Z" fill="#F6F8FB"/>
<path d="M143.029 147.746H67.4916V63.4347L105.26 34.4922L143.029 63.4347V147.746Z" fill="#F6F8FB"/>
<path d="M20.91 150.388C26.3235 150.388 31.7371 150.388 37.2765 150.388C50.3697 150.388 63.337 150.388 76.4302 150.388C92.1672 150.388 107.904 150.388 123.641 150.388C137.238 150.388 150.835 150.388 164.432 150.388C170.978 150.388 177.651 150.64 184.323 150.388C184.449 150.388 184.575 150.388 184.575 150.388C186.338 150.388 186.463 147.494 184.575 147.494C179.161 147.494 173.748 147.494 168.208 147.494C155.115 147.494 142.148 147.494 129.055 147.494C113.318 147.494 97.5807 147.494 81.8437 147.494C68.2469 147.494 54.6502 147.494 41.0534 147.494C34.5068 147.494 27.8343 147.242 21.1618 147.494C21.0359 147.494 20.91 147.494 20.91 147.494C19.0216 147.62 19.0216 150.388 20.91 150.388Z" fill="#0E002D"/>
<path d="M104.692 80.9604C111.162 80.9604 116.406 75.5518 116.406 68.88C116.406 62.2082 111.162 56.7997 104.692 56.7997C98.2225 56.7997 92.9779 62.2082 92.9779 68.88C92.9779 75.5518 98.2225 80.9604 104.692 80.9604Z" fill="#00FFFF"/>
<path d="M36.1435 140.95C40.424 140.195 43.6973 136.42 43.6973 131.89V124.088C43.6973 119.055 39.5427 114.902 34.5068 114.902C29.471 114.902 25.4423 119.055 25.4423 124.088V131.89C25.4423 136.42 28.7156 140.195 32.9961 140.95V149.004H36.1435V140.95ZM28.4638 131.89V124.088C28.4638 120.816 31.2335 118.048 34.5068 118.048C37.7801 118.048 40.5499 120.816 40.5499 124.088V131.89C40.5499 135.162 37.7801 137.93 34.5068 137.93C31.2335 137.93 28.4638 135.288 28.4638 131.89Z" fill="#0E002D" stroke="#0E002D" stroke-miterlimit="10"/>
<path d="M40.5499 132.016V124.214C40.5499 120.942 37.7802 118.174 34.5069 118.174C31.2336 118.174 28.4638 120.942 28.4638 124.214V132.016C28.4638 135.288 31.2336 138.056 34.5069 138.056C37.7802 138.056 40.5499 135.413 40.5499 132.016Z" fill="#E63946"/>
<path d="M161.41 82.5621C162.166 82.5621 162.795 81.9329 162.795 81.1779V73.7535C162.795 72.9984 162.166 72.3693 161.41 72.3693H157.633L152.22 54.2487C152.094 53.6195 151.465 53.242 150.835 53.242H144.163L138.749 39.5258C138.497 39.0224 137.994 38.6449 137.364 38.6449H109.289L104.883 33.1081C104.379 32.4789 103.372 32.3531 102.743 32.9823L102.617 33.1081L98.2105 38.6449H70.2615C69.6321 38.6449 69.1285 39.0224 68.8767 39.5258L63.4632 52.9904H56.7907C56.1612 52.9904 55.5317 53.3679 55.4058 53.997L49.9923 72.1176H46.2154C45.46 72.1176 44.8305 72.7468 44.8305 73.5018V80.9262C44.8305 81.6812 45.46 82.3104 46.2154 82.3104H49.6146V139.818H46.2154C45.46 139.818 44.8305 140.447 44.8305 141.202V148.627C44.8305 149.382 45.46 150.011 46.2154 150.011H161.41C162.166 150.011 162.795 149.382 162.795 148.627V141.202C162.795 140.447 162.166 139.818 161.41 139.818H158.011V82.5621H161.41ZM159.9 79.6678H131.195V75.0118H160.026V79.6678H159.9ZM154.612 72.2434H131.195V66.8324C131.195 66.4549 131.069 66.2032 130.944 65.9516L123.138 56.0104H149.954L154.612 72.2434ZM136.357 41.5392L141.015 52.9904H120.746L111.681 41.5392H136.357ZM103.75 36.254L107.527 40.91L118.857 55.2554L128.3 67.0841V139.944H79.3261V67.2099L88.7683 55.3813L100.099 41.0358L103.75 36.254ZM71.1428 41.5392H95.9444L86.8798 52.9904H66.6106L71.1428 41.5392ZM57.7978 55.8846H84.6137L76.8081 65.8257C76.5564 66.0774 76.5564 66.4549 76.5564 66.7066V72.1176H53.0138L57.7978 55.8846ZM47.6002 75.1377H76.4305V79.7936H47.6002V75.1377ZM52.5102 82.5621H76.5564V140.07H52.5102V82.5621ZM159.9 147.62H47.6002V142.964H159.9V147.62ZM155.116 140.195H131.195V82.5621H155.116V140.195ZM69.8839 87.3439H58.9309C58.1755 87.3439 57.546 87.9731 57.546 88.7281V107.478C57.546 108.233 58.1755 108.862 58.9309 108.862H69.8839C70.6392 108.862 71.2687 108.233 71.2687 107.478V88.7281C71.3946 87.9731 70.7651 87.3439 69.8839 87.3439ZM68.499 106.094H60.4416V90.1123H68.499V106.094ZM69.8839 113.77H58.9309C58.1755 113.77 57.546 114.399 57.546 115.154V133.904C57.546 134.659 58.1755 135.288 58.9309 135.288H69.8839C70.6392 135.288 71.2687 134.659 71.2687 133.904V115.154C71.3946 114.399 70.7651 113.77 69.8839 113.77ZM68.499 132.519H60.4416V116.664H68.499V132.519ZM97.4551 87.3439H86.5022C85.7468 87.3439 85.1173 87.9731 85.1173 88.7281V107.478C85.1173 108.233 85.7468 108.862 86.5022 108.862H97.4551C98.2105 108.862 98.84 108.233 98.84 107.478V88.7281C98.9659 87.9731 98.2105 87.3439 97.4551 87.3439ZM96.0703 106.094H88.0129V90.1123H96.0703V106.094ZM97.4551 113.77H86.5022C85.7468 113.77 85.1173 114.399 85.1173 115.154V133.904C85.1173 134.659 85.7468 135.288 86.5022 135.288H97.4551C98.2105 135.288 98.84 134.659 98.84 133.904V115.154C98.9659 114.399 98.2105 113.77 97.4551 113.77ZM96.0703 132.519H88.0129V116.664H96.0703V132.519ZM108.66 88.7281V107.478C108.66 108.233 109.289 108.862 110.045 108.862H121.124C121.879 108.862 122.508 108.233 122.508 107.478V88.7281C122.508 87.9731 121.879 87.3439 121.124 87.3439H110.171C109.289 87.3439 108.66 87.9731 108.66 88.7281ZM111.555 90.1123H119.613V106.094H111.555V90.1123ZM121.124 113.77H110.171C109.415 113.77 108.786 114.399 108.786 115.154V133.904C108.786 134.659 109.415 135.288 110.171 135.288H121.124C121.879 135.288 122.508 134.659 122.508 133.904V115.154C122.508 114.399 121.879 113.77 121.124 113.77ZM119.613 132.519H111.555V116.664H119.613V132.519ZM137.616 108.988H148.569C149.324 108.988 149.954 108.359 149.954 107.604V88.7281C149.954 87.9731 149.324 87.3439 148.569 87.3439H137.616C136.861 87.3439 136.231 87.9731 136.231 88.7281V107.478C136.231 108.359 136.861 108.988 137.616 108.988ZM139.127 90.1123H147.184V106.094H139.127V90.1123ZM137.616 135.414H148.569C149.324 135.414 149.954 134.784 149.954 134.029V115.154C149.954 114.399 149.324 113.77 148.569 113.77H137.616C136.861 113.77 136.231 114.399 136.231 115.154V133.904C136.231 134.784 136.861 135.414 137.616 135.414ZM139.127 116.664H147.184V132.645H139.127V116.664ZM90.4049 69.2233C90.4049 76.6477 96.322 82.5621 103.75 82.5621C111.178 82.5621 117.095 76.6477 117.095 69.2233C117.095 61.7989 111.178 55.8846 103.75 55.8846C96.4479 55.8846 90.4049 61.9248 90.4049 69.2233ZM114.199 69.2233C114.199 75.0118 109.541 79.6678 103.75 79.6678C97.9587 79.6678 93.3005 75.0118 93.3005 69.2233C93.3005 63.4348 97.9587 58.7789 103.75 58.7789C109.541 58.7789 114.199 63.4348 114.199 69.2233ZM103.75 61.6731C104.505 61.6731 105.135 62.3023 105.135 63.0573V67.7133H107.275C108.03 67.7133 108.66 68.3425 108.66 69.0975C108.66 69.8525 108.03 70.4817 107.275 70.4817H103.876C103.12 70.4817 102.491 69.8525 102.491 69.0975V62.9315C102.365 62.3023 102.995 61.6731 103.75 61.6731Z" fill="#0E002D"/>
</svg>
